<?xml version="1.0" encoding="UTF-8"?>
<svg width="43px" height="42px" viewBox="0 0 43 42" version="1.1" xmlns="http://www.w3.org/2000/svg" xmlns:xlink="http://www.w3.org/1999/xlink">
    <!-- Generator: Sketch 42 (36781) - http://www.bohemiancoding.com/sketch -->
    <title>in</title>
    <desc>Created with Sketch.</desc>
    <defs></defs>
    <g id="Symbols" stroke="none" stroke-width="1" fill="none" fill-rule="evenodd">
        <g id="footer" transform="translate(-1121.000000, -653.000000)">
            <g transform="translate(0.000000, -16.000000)" id="Group-5">
                <g transform="translate(0.000000, 618.000000)">
                    <g id="Group-2" transform="translate(994.500000, 51.000000)">
                        <g id="in" transform="translate(127.000000, 0.000000)">
                            <path d="M0,21 C0,9.40201968 9.40201968,0 21,0 C32.5979803,0 42,9.40201968 42,21 C42,32.5979803 32.5979803,42 21,42 C9.40201968,42 0,32.5979803 0,21 Z" id="back-copy-3" fill="#4A169B"></path>
                            <path d="M16.1845126,17.5920685 L16.1845126,29.1921864 L12.3237071,29.1921864 L12.3237071,17.5920685 L16.1845126,17.5920685 Z M16.438795,14.003684 C16.438795,15.1175091 15.6003879,16.0087539 14.254187,16.0087539 L14.2295144,16.0087539 C12.9333526,16.0087539 12.0954081,15.1175091 12.0954081,14.003684 C12.0954081,12.8662998 12.9588734,12 14.2796307,12 C15.6003879,12 16.4137369,12.8662998 16.438795,14.003684 Z M30.1080543,22.5410333 L30.1079001,29.1921864 L26.2472488,29.1921864 L26.2472488,22.9861168 C26.2472488,21.4272853 25.6885677,20.3635812 24.2909397,20.3635812 C23.2243107,20.3635812 22.5889902,21.0806729 22.3099581,21.7732816 C22.207875,22.0214998 22.1828169,22.3673422 22.1828169,22.7140315 L22.1828169,29.1924944 L18.3215488,29.1924944 C18.3215488,29.1924944 18.3724361,18.6808715 18.3215488,17.5923764 L22.1828169,17.5923764 L22.1828169,19.2354359 C22.6952368,18.4455878 23.6129819,17.3196752 25.6628156,17.3196752 C28.2034036,17.3196752 30.1080543,18.9779788 30.1080543,22.5410333 Z" id="Shape-Copy-3" fill="#FFFFFF"></path>
                        </g>
                    </g>
                </g>
            </g>
        </g>
    </g>
</svg>