<?xml version="1.0" encoding="UTF-8"?>
<svg width="43px" height="42px" viewBox="0 0 43 42" version="1.1" xmlns="http://www.w3.org/2000/svg" xmlns:xlink="http://www.w3.org/1999/xlink">
    <!-- Generator: Sketch 42 (36781) - http://www.bohemiancoding.com/sketch -->
    <title>twit</title>
    <desc>Created with Sketch.</desc>
    <defs></defs>
    <g id="Symbols" stroke="none" stroke-width="1" fill="none" fill-rule="evenodd">
        <g id="footer" transform="translate(-1058.000000, -653.000000)">
            <g transform="translate(0.000000, -16.000000)" id="Group-5">
                <g transform="translate(0.000000, 618.000000)">
                    <g id="Group-2" transform="translate(994.500000, 51.000000)">
                        <g id="twit" transform="translate(64.000000, 0.000000)">
                            <path d="M0,21 C0,9.40201968 9.40201968,0 21,0 C32.5979803,0 42,9.40201968 42,21 C42,32.5979803 32.5979803,42 21,42 C9.40201968,42 0,32.5979803 0,21 Z" id="back-copy" fill="#4A169B"></path>
                            <path d="M21.8710523,18.469063 L21.9151195,19.1957104 L21.1806662,19.1067332 C18.5072562,18.7656538 16.1716947,17.6089498 14.1886708,15.6662803 L13.2191925,14.7023603 L12.9694784,15.4141782 C12.440672,17.0009388 12.7785205,18.6766766 13.8802004,19.8037215 C14.4677631,20.4265621 14.3355615,20.5155393 13.3220159,20.1448009 C12.9694784,20.0261646 12.661008,19.9371873 12.6316298,19.981676 C12.5288064,20.0854827 12.881344,21.4349707 13.1604362,21.9688341 C13.5423519,22.710311 14.3208724,23.4369584 15.1728382,23.867015 L15.8926025,24.2080944 L15.0406366,24.2229239 C14.218049,24.2229239 14.1886708,24.2377534 14.2768052,24.5491738 C14.5705865,25.5130937 15.7310227,26.5363319 17.0236605,26.981218 L17.9343826,27.2926383 L17.1411731,27.7671836 C15.9660478,28.4493423 14.5852756,28.8349103 13.2045034,28.8645694 C12.5434954,28.8793989 12,28.9387171 12,28.9832057 C12,29.1315011 13.792066,29.9619552 14.8349897,30.2882051 C17.9637608,31.2521251 21.6800944,30.836898 24.471017,29.1908192 C26.4540409,28.0192857 28.4370648,25.6910482 29.3624759,23.4369584 C29.8619042,22.2357658 30.3613324,20.0409941 30.3613324,18.9880969 C30.3613324,18.3059381 30.4053996,18.2169609 31.2279873,17.4013363 C31.7127265,16.9267911 32.1680875,16.4077572 32.2562219,16.2594618 C32.4031126,15.9777006 32.3884235,15.9777006 31.6392811,16.2298028 C30.3907105,16.6746889 30.2144417,16.6153708 30.8313825,15.9480415 C31.2867435,15.4734963 31.830239,14.6133831 31.830239,14.3612809 C31.830239,14.3167923 31.609903,14.39094 31.3601889,14.5244059 C31.0957857,14.6727012 30.5082231,14.8951443 30.0675511,15.0286102 L29.2743415,15.2807123 L28.5545773,14.7913375 C28.1579725,14.5244059 27.599788,14.2278151 27.3060067,14.1388379 C26.5568643,13.9312243 25.4111172,13.9608834 24.7354201,14.198156 C22.8992869,14.8654852 21.7388507,16.5857117 21.8710523,18.469063 Z" id="Shape-Copy" fill="#FFFFFF"></path>
                        </g>
                    </g>
                </g>
            </g>
        </g>
    </g>
</svg>